<mxfile host="app.diagrams.net" agent="Mozilla/5.0 (Macintosh; Intel Mac OS X 10_15_7) AppleWebKit/537.36 (KHTML, like Gecko) Chrome/137.0.0.0 Safari/537.36" version="27.1.6">
  <diagram name="ページ1" id="xa0yKLonjBlS0uUep9fW">
    <mxGraphModel dx="786" dy="766" grid="1" gridSize="10" guides="1" tooltips="1" connect="1" arrows="1" fold="1" page="1" pageScale="1" pageWidth="827" pageHeight="1169" math="0" shadow="0">
      <root>
        <mxCell id="0" />
        <mxCell id="1" parent="0" />
        <mxCell id="Xee_GbpfkXZf8yqgo6hG-6" style="edgeStyle=orthogonalEdgeStyle;rounded=0;orthogonalLoop=1;jettySize=auto;html=1;exitX=1;exitY=1;exitDx=0;exitDy=0;entryX=0.998;entryY=0.949;entryDx=0;entryDy=0;entryPerimeter=0;" edge="1" parent="1">
          <mxGeometry relative="1" as="geometry">
            <mxPoint x="300" y="370" as="sourcePoint" />
            <mxPoint x="299.46000000000004" y="355.72" as="targetPoint" />
          </mxGeometry>
        </mxCell>
        <mxCell id="Xee_GbpfkXZf8yqgo6hG-10" value="&lt;span style=&quot;font-size: 16px;&quot;&gt;クライアント&lt;/span&gt;" style="text;html=1;align=center;verticalAlign=middle;whiteSpace=wrap;rounded=0;" vertex="1" parent="1">
          <mxGeometry x="60" y="90" width="200" height="30" as="geometry" />
        </mxCell>
        <mxCell id="Xee_GbpfkXZf8yqgo6hG-11" value="&lt;span style=&quot;font-size: 16px;&quot;&gt;ユニバーサルログイン&lt;/span&gt;" style="text;html=1;align=center;verticalAlign=middle;whiteSpace=wrap;rounded=0;" vertex="1" parent="1">
          <mxGeometry x="520" y="90" width="200" height="30" as="geometry" />
        </mxCell>
        <mxCell id="Xee_GbpfkXZf8yqgo6hG-12" value="ユニバーサルログインに遷移" style="rounded=0;whiteSpace=wrap;html=1;" vertex="1" parent="1">
          <mxGeometry x="90" y="140" width="200" height="60" as="geometry" />
        </mxCell>
        <mxCell id="Xee_GbpfkXZf8yqgo6hG-13" value="ユニバーサルログインに遷移" style="rounded=0;whiteSpace=wrap;html=1;" vertex="1" parent="1">
          <mxGeometry x="520" y="170" width="200" height="60" as="geometry" />
        </mxCell>
        <mxCell id="Xee_GbpfkXZf8yqgo6hG-15" value="" style="endArrow=classic;html=1;rounded=0;entryX=0;entryY=0.5;entryDx=0;entryDy=0;exitX=1;exitY=0.5;exitDx=0;exitDy=0;" edge="1" parent="1" source="Xee_GbpfkXZf8yqgo6hG-12" target="Xee_GbpfkXZf8yqgo6hG-13">
          <mxGeometry width="50" height="50" relative="1" as="geometry">
            <mxPoint x="400" y="420" as="sourcePoint" />
            <mxPoint x="450" y="370" as="targetPoint" />
          </mxGeometry>
        </mxCell>
      </root>
    </mxGraphModel>
  </diagram>
</mxfile>
